<?xml version="1.0" standalone="no"?>
<!DOCTYPE svg PUBLIC "-//W3C//DTD SVG 20010904//EN"
 "http://www.w3.org/TR/2001/REC-SVG-20010904/DTD/svg10.dtd">
<svg version="1.0" xmlns="http://www.w3.org/2000/svg"
 width="484.000000pt" height="321.000000pt" viewBox="0 0 484.000000 321.000000"
 preserveAspectRatio="xMidYMid meet">

<g transform="translate(0.000000,321.000000) scale(0.100000,-0.100000)"
fill="#bf0000" stroke="none">
<path d="M2242 3189 c-166 -19 -362 -79 -517 -156 -364 -183 -622 -470 -784
-873 -28 -69 -51 -133 -51 -142 0 -9 -4 -19 -9 -22 -17 -11 -178 120 -306 248
-197 198 -301 344 -460 651 -116 221 -108 221 -102 5 12 -402 128 -932 294
-1340 326 -805 889 -1318 1641 -1496 631 -149 1210 -7 1619 397 113 112 174
187 246 302 58 92 159 308 179 381 7 25 15 46 18 46 14 0 181 -141 255 -215
175 -174 293 -343 456 -652 l104 -195 3 128 c5 212 -36 503 -118 840 -224 926
-692 1574 -1375 1900 -341 163 -741 234 -1093 193z m363 -1111 c146 -47 262
-163 316 -314 30 -83 31 -236 1 -316 -127 -350 -566 -451 -825 -191 -104 104
-154 238 -144 388 21 320 342 534 652 433z"/>
</g>
</svg>
